<svg width="507" height="507" viewBox="0 0 507 507" fill="none" xmlns="http://www.w3.org/2000/svg">
<path d="M471.6 16.7C449.7 -5.20001 414.3 -5.20001 392.4 16.7L362.3 46.7L460.2 144.6L490.3 114.5C512.2 92.6 512.2 57.2 490.3 35.3L471.6 16.7ZM172.4 236.7C166.3 242.8 161.6 250.3 158.9 258.6L129.3 347.4C126.4 356 128.7 365.5 135.1 372C141.5 378.5 151 380.7 159.7 377.8L248.5 348.2C256.7 345.4 264.2 340.8 270.4 334.7L437.7 167.3L339.7 69.3L172.4 236.7V236.7ZM96 59C43 59 0 102 0 155V411C0 464 43 507 96 507H352C405 507 448 464 448 411V315C448 297.3 433.7 283 416 283C398.3 283 384 297.3 384 315V411C384 428.7 369.7 443 352 443H96C78.3 443 64 428.7 64 411V155C64 137.3 78.3 123 96 123H192C209.7 123 224 108.7 224 91C224 73.3 209.7 59 192 59H96Z" fill="#5E72E4"/>
</svg>
