<svg width="496" height="512" viewBox="0 0 496 512" fill="none" xmlns="http://www.w3.org/2000/svg">
<path d="M0 64C0 28.7 28.7 0 64 0H224V128C224 145.7 238.3 160 256 160H384V304H176C140.7 304 112 332.7 112 368V512H64C28.7 512 0 483.3 0 448V64ZM384 128H256V0L384 128ZM176 352H208C238.9 352 264 377.1 264 408C264 438.9 238.9 464 208 464H192V496C192 504.8 184.8 512 176 512C167.2 512 160 504.8 160 496V448V368C160 359.2 167.2 352 176 352ZM208 432C221.3 432 232 421.3 232 408C232 394.7 221.3 384 208 384H192V432H208ZM304 352H336C362.5 352 384 373.5 384 400V464C384 490.5 362.5 512 336 512H304C295.2 512 288 504.8 288 496V368C288 359.2 295.2 352 304 352ZM336 480C344.8 480 352 472.8 352 464V400C352 391.2 344.8 384 336 384H320V480H336ZM416 368C416 359.2 423.2 352 432 352H480C488.8 352 496 359.2 496 368C496 376.8 488.8 384 480 384H448V416H480C488.8 416 496 423.2 496 432C496 440.8 488.8 448 480 448H448V496C448 504.8 440.8 512 432 512C423.2 512 416 504.8 416 496V432V368Z" fill="white"/>
</svg>
